<svg xmlns="http://www.w3.org/2000/svg" version="1.0" width="1147.000000" height="838.000000" viewBox="0 0 1147.000000 838.000000" preserveAspectRatio="xMidYMid meet"><g transform="translate(0.000000,838.000000) scale(0.100000,-0.100000)" fill="#000000" stroke="none"><path d="M8473 8048 c-44 -57 -128 -167 -189 -245 -60 -78 -140 -186 -179 -239 -38 -53 -121 -160 -184 -238 -62 -78 -125 -159 -139 -181 -79 -125 -494 -652 -613 -779 -108 -117 -313 -315 -396 -384 -40 -33 -127 -93 -195 -134 -238 -142 -839 -629 -1175 -952 -78 -75 -146 -136 -150 -136 -4 0 -19 16 -33 36 -25 38 -130 134 -286 262 -49 41 -148 129 -220 197 -129 120 -224 186 -290 199 -29 6 -36 1 -110 -81 -152 -170 -290 -318 -434 -468 -80 -83 -194 -207 -255 -275 -144 -164 -432 -457 -517 -526 -37 -31 -78 -75 -92 -98 -83 -142 -327 -412 -454 -503 l-63 -46 -187 7 c-205 7 -522 -7 -617 -27 -60 -13 -149 -66 -151 -90 -1 -7 -3 -14 -4 -17 -1 -3 -3 -39 -5 -80 -2 -41 -6 -93 -8 -115 -3 -22 -9 -79 -12 -127 -5 -58 -12 -91 -21 -99 -21 -17 -221 -26 -849 -40 -292 -6 -546 -13 -567 -16 -46 -6 -46 -6 -53 -268 -4 -110 -11 -222 -16 -249 -7 -38 -6 -51 3 -57 10 -7 10 -11 0 -21 -9 -9 -12 -254 -12 -1135 l0 -1123 5735 0 5735 0 0 1244 c0 1091 -2 1245 -15 1250 -12 4 -15 29 -15 131 0 92 3 125 12 125 7 0 2 7 -10 16 -12 8 -22 24 -22 34 0 11 -9 24 -19 29 -10 6 -158 15 -327 21 -603 21 -592 20 -617 40 -21 18 -22 24 -25 254 l-3 236 -26 20 c-38 30 -89 36 -142 16 -39 -14 -97 -16 -385 -16 -231 -1 -343 3 -350 10 -8 8 -11 174 -12 538 -1 290 -4 550 -7 579 -4 33 -2 55 4 59 8 4 7 9 -2 14 -10 7 -10 25 -1 92 8 57 10 193 6 434 l-6 351 78 6 c42 4 118 7 168 7 50 1 136 5 191 11 55 5 197 13 315 17 229 9 260 16 260 56 0 23 -50 76 -71 76 -34 0 -88 58 -174 185 -53 77 -134 190 -181 250 -47 61 -95 127 -107 149 -38 68 -41 72 -79 105 -24 21 -38 42 -38 56 0 15 -8 26 -19 30 -20 6 -64 54 -116 125 -16 23 -49 63 -72 91 -45 52 -51 65 -31 71 7 3 9 11 4 24 -6 12 -10 15 -13 7 -8 -23 -31 -14 -53 22 -13 21 -19 42 -15 54 5 16 2 18 -14 14 -21 -5 -46 29 -37 52 2 7 -4 15 -14 18 -13 3 -16 11 -13 31 4 18 0 28 -11 32 -9 3 -16 11 -16 16 0 20 -123 180 -145 188 -32 12 -75 72 -75 103 0 19 -4 25 -15 21 -23 -9 -48 15 -34 32 9 11 5 24 -16 57 -33 49 -199 280 -229 318 -12 14 -28 37 -36 50 -8 12 -34 43 -57 67 -24 24 -43 52 -43 62 0 10 -13 28 -29 40 -17 11 -32 29 -36 38 -6 22 -142 170 -167 183 -14 7 -31 -9 -95 -93z m114 -410 c11 -13 85 -122 164 -243 486 -745 915 -1356 1062 -1512 17 -18 27 -36 23 -40 -14 -14 -152 -22 -393 -22 -173 -1 -244 -4 -249 -13 -4 -6 -7 -677 -6 -1490 l2 -1478 -584 0 -583 0 -7 38 c-3 20 -6 296 -7 612 -2 1252 -14 2311 -28 2319 -6 4 -191 11 -409 15 -218 4 -401 11 -405 15 -5 5 -2 22 6 37 21 39 175 230 322 400 126 145 538 691 809 1070 154 216 233 314 253 314 5 0 19 -10 30 -22z m-950 -2111 c19 -12 7 -30 -48 -72 -28 -21 -114 -119 -201 -229 -84 -105 -181 -224 -217 -265 -89 -99 -721 -713 -896 -869 -77 -69 -259 -241 -405 -383 -316 -306 -408 -389 -431 -389 -10 0 -31 18 -49 39 -17 22 -68 70 -113 107 -143 119 -397 345 -533 475 -137 132 -224 190 -251 168 -7 -7 -53 -71 -102 -143 -144 -212 -177 -254 -376 -473 -241 -266 -576 -596 -632 -622 -67 -33 -151 -41 -488 -48 -337 -6 -365 -4 -365 37 0 33 79 174 148 264 37 47 130 157 207 244 77 86 184 209 236 272 53 63 136 158 185 210 50 52 180 196 289 320 287 323 821 869 851 870 18 0 71 -44 233 -193 86 -79 214 -195 286 -258 71 -63 169 -153 216 -201 47 -49 88 -88 92 -88 3 0 22 24 41 53 79 121 356 390 571 554 44 34 203 160 353 281 150 121 306 243 347 271 76 53 106 61 275 75 87 6 765 1 777 -7z m9 -1354 c5 -10 10 -311 12 -669 l3 -651 -32 -7 c-17 -3 -219 -6 -449 -6 l-418 0 -7 113 c-4 61 -5 328 -3 592 3 437 5 483 21 512 39 73 106 87 491 108 159 8 291 17 294 20 3 3 22 5 43 5 25 0 40 -5 45 -17z m-1238 -990 c-2 -177 -7 -325 -11 -330 -10 -10 -687 -17 -774 -8 -35 4 -63 11 -63 15 0 30 338 384 490 513 52 45 136 118 185 162 50 45 106 94 125 109 l35 29 8 -84 c4 -46 6 -229 5 -406z m-1769 293 c40 -30 138 -112 216 -182 l144 -126 -6 -157 c-3 -86 -8 -158 -10 -161 -7 -7 -708 -18 -775 -12 -39 3 -59 10 -64 21 -4 9 -9 83 -12 164 -5 176 -13 161 146 269 57 39 119 91 139 117 65 82 107 121 128 121 12 0 54 -24 94 -54z m-2431 -266 c103 -10 142 -21 142 -42 0 -5 -12 -25 -27 -43 -16 -18 -35 -41 -44 -51 -9 -10 -29 -26 -45 -35 -20 -10 -42 -40 -68 -92 -27 -52 -47 -79 -65 -87 -30 -12 -270 -31 -300 -23 -22 6 -26 19 -41 143 -10 86 -14 233 -6 241 8 7 343 -1 454 -11z m8046 -157 c-1 -192 -6 -206 -79 -216 -58 -8 -657 12 -668 22 -4 4 -6 84 -5 177 l3 169 40 6 c22 4 191 6 375 5 l335 -1 -1 -162z m-2304 -716 c43 -15 73 -38 136 -101 46 -47 89 -101 102 -128 21 -45 34 -130 47 -307 l7 -84 -39 6 c-21 4 -83 7 -139 7 l-101 0 -11 129 c-11 131 -26 182 -60 200 -32 17 -108 23 -150 12 -35 -10 -43 -17 -53 -49 -16 -52 -26 -1161 -10 -1213 9 -30 19 -40 51 -53 22 -9 64 -16 94 -16 103 0 126 47 126 254 l0 126 94 0 c51 0 115 -3 141 -7 l48 -6 -7 -146 c-8 -169 -25 -266 -60 -325 -36 -61 -108 -123 -184 -159 -62 -30 -75 -32 -172 -32 -93 0 -112 3 -162 27 -107 50 -194 152 -240 279 -21 60 -22 82 -26 385 -2 176 1 444 7 596 8 237 13 284 31 339 80 239 302 350 530 266z m-3692 11 c6 -7 22 -56 37 -108 15 -52 51 -176 80 -275 103 -347 195 -694 195 -734 0 -11 4 -22 10 -26 11 -7 20 26 55 190 61 289 234 907 261 935 11 12 48 16 168 18 l153 4 6 -99 c11 -159 8 -1791 -3 -1798 -5 -3 -68 -8 -140 -12 l-130 -6 -1 54 c-5 257 -20 882 -22 914 -1 22 2 74 5 115 6 60 -1 37 -36 -117 -25 -106 -65 -261 -90 -345 -24 -84 -55 -191 -67 -238 -32 -118 -50 -135 -154 -143 -44 -3 -94 -9 -112 -13 -40 -8 -48 6 -63 116 -19 144 -47 265 -127 547 -42 150 -78 271 -79 270 -2 -1 1 -45 6 -97 5 -52 12 -309 16 -571 l7 -476 -63 -6 c-35 -4 -96 -7 -137 -7 -70 0 -74 1 -83 26 -6 16 -10 373 -10 949 l0 925 23 5 c12 3 76 6 142 8 66 1 125 4 131 5 6 1 16 -4 22 -10z m1801 -7 c10 -10 22 -38 26 -62 3 -24 26 -144 51 -265 24 -122 64 -347 88 -500 25 -154 54 -322 65 -374 11 -52 40 -227 66 -389 37 -236 43 -296 33 -302 -7 -5 -68 -9 -136 -9 l-123 0 -13 32 c-7 18 -21 100 -30 182 -10 81 -20 154 -22 161 -9 21 -40 25 -221 25 l-172 0 -5 -32 c-3 -18 -15 -98 -27 -178 -32 -210 -18 -193 -147 -186 -162 10 -172 12 -172 42 0 13 34 184 75 380 41 195 82 399 91 452 8 53 38 212 65 352 28 140 65 344 83 453 18 109 39 204 45 210 8 8 65 14 154 18 78 3 157 6 175 7 20 1 39 -5 51 -17z m1243 -106 c10 -177 18 -169 -169 -173 l-152 -3 -3 -808 c-2 -445 -6 -812 -9 -815 -3 -4 -64 -3 -135 1 l-129 8 -3 165 c-2 91 2 450 8 799 6 349 8 636 5 639 -2 3 -73 9 -155 13 -83 5 -155 11 -161 14 -5 4 -9 67 -9 140 l0 135 408 3 c224 1 427 3 452 2 l45 0 7 -120z m1303 103 c6 -6 10 -145 9 -380 l-1 -370 141 7 c78 4 142 8 143 9 2 1 5 133 8 292 3 159 8 326 11 372 l6 82 132 0 133 0 6 -337 c4 -186 7 -613 7 -949 l0 -611 -135 -7 c-74 -4 -139 -5 -145 -1 -11 7 -8 324 6 699 l6 149 -69 -7 c-37 -4 -102 -9 -145 -13 -67 -5 -77 -8 -82 -27 -3 -11 -9 -194 -13 -404 -5 -308 -9 -385 -20 -389 -7 -3 -64 -6 -126 -7 l-112 -1 -8 105 c-4 58 -6 484 -5 948 3 736 5 844 18 852 18 11 221 1 235 -12z m-7251 -10 c8 -30 8 -159 0 -236 l-7 -60 -41 -6 c-422 -55 -456 -61 -462 -75 -4 -9 -9 -100 -12 -203 l-5 -188 69 -1 c38 -1 130 -4 204 -8 l135 -6 -1 -143 c0 -80 -5 -147 -11 -153 -5 -5 -84 -12 -176 -16 -129 -5 -170 -3 -182 7 -8 7 -19 10 -23 6 -11 -12 -18 -191 -12 -332 5 -126 5 -128 30 -135 14 -4 127 -7 252 -8 125 -1 229 -5 232 -9 2 -4 8 -74 12 -154 l7 -146 -69 -8 c-76 -8 -732 2 -757 12 -13 5 -17 31 -19 157 -4 213 10 1697 16 1713 4 12 78 14 410 14 l404 0 6 -22z m1109 -82 c7 -111 0 -203 -16 -213 -6 -3 -81 -11 -166 -17 l-156 -11 -6 -95 c-4 -52 -7 -402 -8 -777 l-1 -683 -149 0 -150 0 -7 56 c-3 31 -5 384 -2 784 l4 729 -85 5 c-112 8 -240 24 -253 32 -9 6 -2 268 8 285 2 4 224 6 492 6 l489 0 6 -101z m890 97 l97 -6 0 -149 c0 -81 -3 -148 -8 -148 -4 0 -97 -11 -206 -25 -233 -29 -254 -30 -283 -10 -21 15 -23 14 -28 -7 -2 -13 -6 -115 -7 -228 l-3 -205 183 -5 c148 -4 185 -8 192 -20 5 -8 10 -72 10 -143 0 -127 0 -128 -25 -137 -14 -5 -98 -15 -188 -20 -89 -6 -164 -13 -166 -16 -4 -4 -18 -481 -20 -706 l-1 -68 -148 0 c-103 0 -153 4 -164 12 -14 12 -15 88 -8 793 5 429 9 848 9 932 l1 152 63 4 c118 6 602 7 700 0z m7312 -3 c136 -20 268 -108 329 -220 l28 -51 -4 -272 c-3 -185 -8 -282 -17 -302 -6 -16 -44 -62 -83 -102 l-71 -72 37 -42 c86 -95 103 -181 135 -679 5 -74 7 -137 5 -139 -2 -2 -23 -5 -46 -6 -24 -1 -77 -5 -120 -10 -68 -6 -77 -5 -86 11 -5 11 -19 93 -31 184 -58 446 -74 539 -102 555 -4 3 -42 3 -82 -1 l-74 -6 -7 -312 c-6 -285 -14 -397 -28 -412 -8 -7 -231 -23 -240 -17 -10 5 -10 1245 -1 1626 l6 277 191 0 c105 0 223 -5 261 -10z m-580 -102 c4 -57 5 -119 3 -138 l-3 -35 -231 -3 -231 -2 -7 -198 c-3 -108 -3 -218 0 -244 l7 -48 178 0 c103 0 180 -4 184 -10 3 -5 8 -60 11 -122 8 -160 19 -152 -203 -158 l-178 -5 2 -249 c1 -136 5 -251 8 -254 3 -4 104 -9 225 -12 120 -3 221 -8 225 -12 4 -4 4 -69 0 -146 l-7 -140 -232 -3 c-127 -2 -290 -3 -362 -1 l-131 4 -6 181 c-11 289 -8 1642 3 1671 l10 26 364 0 364 0 7 -102z"></path><path d="M6478 4494 c-106 -97 -108 -99 -78 -84 55 28 170 124 170 142 0 19 -23 4 -92 -58z"></path><path d="M6088 4171 c-91 -77 -358 -342 -328 -325 58 32 188 146 302 264 75 77 132 140 127 140 -4 0 -50 -36 -101 -79z"></path><path d="M4239 4044 c-134 -131 -169 -188 -66 -108 51 40 173 182 163 191 -3 3 -47 -34 -97 -83z"></path><path d="M3749 3492 c-129 -133 -199 -215 -199 -233 0 -45 61 -8 144 88 60 68 136 196 124 208 -2 3 -33 -26 -69 -63z"></path><path d="M5837 1772 c-16 -108 -46 -287 -67 -397 -21 -110 -41 -217 -43 -238 l-6 -37 145 0 144 0 0 44 c0 65 -123 785 -139 813 -3 7 -19 -76 -34 -185z"></path><path d="M10480 1792 c0 -213 3 -272 14 -287 13 -18 20 -18 91 -8 130 19 145 50 145 311 0 197 -8 228 -58 242 -20 5 -72 10 -114 10 l-78 0 0 -268z"></path><path d="M3600 7070 c-8 -6 -31 -9 -50 -9 -56 3 -207 -80 -280 -153 -64 -64 -128 -163 -162 -250 -32 -83 -36 -218 -9 -300 26 -78 82 -175 118 -204 14 -12 22 -27 19 -33 -4 -6 0 -11 9 -11 9 0 25 -16 36 -35 13 -21 32 -38 48 -41 14 -4 32 -14 39 -23 7 -9 16 -14 20 -11 4 3 7 -4 7 -15 0 -17 6 -20 39 -18 22 2 45 -2 52 -8 22 -18 135 -2 151 21 16 23 41 26 49 7 6 -18 111 -2 136 20 10 9 25 12 37 8 13 -4 35 4 63 22 50 33 67 52 68 75 0 9 7 21 15 25 18 10 81 146 94 204 30 130 -3 344 -69 449 -5 8 -17 30 -26 48 -34 67 -202 182 -289 198 -22 4 -52 15 -67 25 -30 22 -29 22 -48 9z m108 -281 c147 -73 228 -251 177 -385 -22 -58 -96 -133 -164 -167 -143 -71 -317 -3 -397 155 -49 98 -43 202 19 295 83 124 236 167 365 102z"></path><path d="M9660 6680 c0 -5 5 -10 11 -10 5 0 7 5 4 10 -3 6 -8 10 -11 10 -2 0 -4 -4 -4 -10z"></path></g></svg>