<!DOCTYPE svg PUBLIC "-//W3C//DTD SVG 1.1//EN" "http://www.w3.org/Graphics/SVG/1.1/DTD/svg11.dtd">
<svg xmlns="http://www.w3.org/2000/svg" viewBox="0 0 1644 1580">
<path fill="#131212" d="M814.769 82.561c-7.833 5.131-8.045 6.36-7.633 44.372l.364 33.567-12.5.682c-26.855 1.466-60.864 5.663-79.5 9.812-2.75.612-8.6 1.801-13 2.641-4.4.84-11.15 2.181-15 2.979-3.85.799-8.35 1.693-10 1.987-1.65.294-3.9.909-5 1.365-1.1.457-5.15 1.626-9 2.597-3.85.972-7.675 2.087-8.5 2.478-.825.391-5.55 1.975-10.5 3.52-8.235 2.57-15.305 5.055-26 9.138l-8 3.05c-2.2.837-5.418 2.137-7.151 2.887-1.733.75-3.407 1.364-3.72 1.364-.528 0-5.897 2.322-16.422 7.101a224.105 224.105 0 0 1-8.5 3.613c-2.314.916-6.907 3.077-10.207 4.803-22.198 11.609-32.794 17.331-38.268 20.665-3.447 2.1-6.495 3.818-6.774 3.818-.907 0-13.948 8.411-14.291 9.217-.184.431-.731.783-1.216.783s-5.51 3.225-11.167 7.167c-20.245 14.109-30.292 21.214-30.784 21.769-.275.31-2.525 2.221-5 4.245-2.475 2.025-5.673 4.725-7.108 6-1.434 1.276-5.476 4.794-8.982 7.819-18.769 16.192-44.927 41.59-55.573 53.958-2.11 2.451-5.862 6.745-8.337 9.54-2.475 2.795-6.075 7.067-8 9.493-5.524 6.961-9.436 11.48-10.25 11.842-.413.184-.75.78-.75 1.325 0 .545-2.408 4.22-5.352 8.167-2.943 3.946-7.781 10.686-10.75 14.977a9842.157 9842.157 0 0 1-12.143 17.5c-6.216 8.938-12.332 18.895-18.548 30.198-1.361 2.475-2.798 4.95-3.192 5.5-4.228 5.891-19.992 37.935-28.534 58-4.214 9.9-8.254 19.35-8.977 21-1.816 4.143-3.559 9.389-9.469 28.5-6.435 20.812-6.276 20.27-9.984 34-5.07 18.776-6.635 25.425-8.169 34.699-.528 3.191-1.362 8.051-1.853 10.801-.873 4.897-2.734 18.802-3.378 25.254-.179 1.79-.624 3.552-.988 3.917-.365.364-.677 3.4-.694 6.746-.017 3.346-.687 11.483-1.487 18.083-.801 6.6-1.758 19.313-2.126 28.25l-.67 16.25h-79.262l-3.16 2.75c-8.912 7.754-9.103 16.543-.551 25.419l3.535 3.669 39.876-.575c21.932-.316 39.888-.392 39.903-.169.015.223.437 9.406.937 20.406.5 11 1.371 23.15 1.936 27 .565 3.85 1.465 10.375 2 14.5 2.626 20.237 4.289 31.91 5.132 36 .509 2.475 1.22 6.873 1.579 9.772.359 2.9 1.043 5.514 1.521 5.809.477.296.868 2.284.868 4.419s.399 4.129.887 4.43c.487.301 1.194 2.24 1.571 4.309.376 2.069 2.162 8.261 3.969 13.761s4.07 12.7 5.028 16c2.289 7.88 6.415 20.23 8.019 24 .702 1.65 2.948 7.5 4.99 13 2.043 5.5 4.098 10.9 4.568 12 8.904 20.855 18.652 40.993 30.978 64 6.168 11.513 6.291 11.731 8.49 15.018 2.687 4.017 4.155 6.405 6.137 9.982 24.069 43.431 83.935 113.945 118.863 140.004 2.2 1.642 4.225 3.222 4.5 3.513 2.954 3.119 25.876 20.921 35.703 27.728 45.012 31.179 96.844 58.84 136.297 72.737 4.125 1.453 8.175 2.973 9 3.377.825.404 9.6 3.357 19.5 6.562s18.9 6.188 20 6.628c1.1.44 3.125 1.033 4.5 1.318 1.375.285 4.975 1.192 8 2.016 13.95 3.802 23.912 6.089 36 8.268 14.428 2.6 19.147 3.382 29.5 4.892 5.5.802 12.925 1.91 16.5 2.461 3.575.551 15.275 1.487 26 2.08 10.725.592 20.4 1.247 21.5 1.454 1.967.372 2 1.17 2 48.03v47.652l3.5 2.987c9.334 7.966 16.417 8.137 24.598.596l4.402-4.058V1357l10.25.001c12.874.002 34.627-1.696 45.75-3.572 4.675-.788 10.043-1.432 11.929-1.431 1.886.001 4.811-.422 6.5-.939 1.689-.518 7.796-1.682 13.571-2.587 5.775-.904 11.281-2.056 12.236-2.558.955-.503 2.951-.914 4.435-.914 1.484 0 5.427-.704 8.763-1.564 3.336-.86 7.641-1.966 9.566-2.458 1.925-.492 9.575-2.771 17-5.066 7.425-2.295 15.75-4.848 18.5-5.673 26.951-8.089 49.951-16.906 75-28.752 4.95-2.341 11.25-5.254 14-6.474 43.808-19.433 88.555-49.684 139-93.97 13.546-11.892 44.339-45.224 55.008-59.543 1.639-2.2 3.209-4.225 3.489-4.5.279-.275 3.206-3.875 6.505-8s6.448-8.024 6.998-8.663c5.116-5.953 27.041-38.625 35.468-52.855 11.035-18.633 29.095-54.472 35.076-69.607a255.299 255.299 0 0 1 3.797-9c1.082-2.406 2.763-6.625 3.736-9.375.972-2.75 2.075-5.45 2.45-6 .77-1.129 4.304-11.611 8.428-25 1.524-4.95 3.336-10.8 4.027-13 .69-2.2 2.047-6.7 3.016-10 .968-3.3 2.153-7.034 2.631-8.297.479-1.263.871-3.374.871-4.691 0-1.317.419-2.653.93-2.969.512-.316 1.242-3.155 1.623-6.309.382-3.154 1.038-6.184 1.458-6.734.42-.55 1.034-3.025 1.365-5.5.748-5.599 1.172-8.057 2.591-15 2.183-10.689 4.124-22.601 5.05-31 3.328-30.194 4.981-48.975 4.982-56.6l.001-7.1 26.25-.703c14.438-.386 32.383-.633 39.879-.549 15.911.177 16.641-.086 21.56-7.777 4.231-6.613 4.683-11.536 1.473-16.043-4.795-6.734-3.207-6.527-48.197-6.306l-40.681.199-.643-13.81c-1.512-32.47-5.209-65.994-9.519-86.311-.525-2.475-1.485-7.65-2.133-11.5-.648-3.85-1.44-7.675-1.76-8.5-.564-1.455-2.543-10.879-3.78-18-.335-1.925-.959-4.4-1.388-5.5-.429-1.1-1.559-5.375-2.511-9.5-3.18-13.776-17.286-54.218-24.591-70.5-.987-2.2-3.182-7.069-4.877-10.82-1.695-3.751-3.082-7.049-3.082-7.329 0-.803-15.675-32.249-19.117-38.351a2513.68 2513.68 0 0 1-6.04-10.781c-3.101-5.575-24.841-40.261-28.968-46.219-3.638-5.251-17.172-23.427-17.871-24-.335-.275-1.928-2.3-3.54-4.5-1.611-2.2-5.345-6.925-8.298-10.5l-7.02-8.5c-12.355-14.963-10.864-13.333-31.188-34.111-17.628-18.021-32.453-31.372-45.458-40.936-2.2-1.618-4.225-3.195-4.5-3.505-1.576-1.775-18.071-14.718-27.5-21.578-15.892-11.563-27.789-19.372-37.698-24.745a1072.365 1072.365 0 0 1-24.25-13.527c-7.724-4.433-22.885-12.098-23.93-12.098-.276 0-4.807-2.025-10.068-4.5-5.262-2.475-9.794-4.5-10.071-4.5-.278 0-2.412-.857-4.744-1.905-2.331-1.047-6.489-2.672-9.239-3.61-6.053-2.065-5.415-1.84-19-6.692-6.05-2.161-13.925-4.82-17.5-5.909a2329.891 2329.891 0 0 1-14.319-4.432c-4.301-1.349-8.662-2.452-9.691-2.452-1.03 0-2.119-.4-2.422-.89-.302-.489-2.016-1.136-3.809-1.438-1.792-.301-6.184-1.228-9.759-2.06-21.425-4.983-26.478-5.954-49.5-9.517-4.4-.681-9.432-1.674-11.183-2.207-1.751-.533-10.526-1.226-19.5-1.539-8.974-.313-17.075-.97-18.001-1.459-.927-.49-7.564-.89-14.75-.89H841v-35.096c0-31.285-.185-35.409-1.706-37.984-1.69-2.861-6.669-5.92-9.636-5.92-.847 0-1.818-.45-2.158-1-1.184-1.916-8.859-.975-12.731 1.561m-20.945 133.948c-.357.357-5.75 1.061-11.986 1.566-6.236.504-16.963 1.615-23.838 2.468s-15.65 1.908-19.5 2.344c-10.851 1.228-21.822 3.162-23.736 4.185-.955.51-2.691.928-3.857.928-2.347 0-15.262 2.783-18.407 3.967-1.1.414-5.373 1.556-9.496 2.538-4.123.982-8.173 2.144-9 2.583-.827.439-7.354 2.629-14.504 4.867-7.15 2.238-13.9 4.466-15 4.951-1.1.485-4.25 1.647-7 2.583-2.75.935-6.418 2.332-8.151 3.105-1.733.773-3.418 1.406-3.745 1.406-2.961 0-59.03 27.986-74.604 37.237a548.758 548.758 0 0 0-58.977 40.462c-22.791 17.941-26.141 20.763-38.925 32.801-24.186 22.773-54.16 57.901-64.598 75.706-.55.938-5.55 8.363-11.111 16.5-5.562 8.137-12.049 18.169-14.417 22.294-5.366 9.348-31.479 60.862-32.498 64.109-.412 1.315-1.838 4.866-3.169 7.891a773.01 773.01 0 0 0-3.26 7.5c-2.668 6.345-3.877 9.37-4.996 12.5-.688 1.925-1.637 4.4-2.108 5.5-.838 1.954-7.137 21.681-10.335 32.365-.883 2.95-1.606 6.219-1.606 7.263 0 1.045-.413 2.681-.918 3.636-.505.955-1.654 5.336-2.552 9.736-1.672 8.186-2.989 13.692-4.545 19-.483 1.65-1.186 5.925-1.562 9.5-.376 3.575-1.029 6.95-1.45 7.5-.422.55-.996 3.25-1.275 6-.848 8.357-2.793 21.793-3.691 25.5-3.823 15.787-4.838 85.172-1.668 114 .938 8.525 2.155 20.675 2.704 27 .549 6.325 1.439 12.534 1.978 13.797.538 1.263.979 4.001.979 6.083 0 2.083.337 4.12.75 4.527.656.647 1.351 4.132 3.908 19.593.319 1.925.925 3.95 1.349 4.5.423.55 1.087 3.362 1.475 6.249.388 2.887 1.113 5.501 1.612 5.809.498.308.906 1.857.906 3.442 0 1.585.391 3.124.869 3.419.477.295 1.161 2.366 1.518 4.603.358 2.236 1.047 4.833 1.531 5.772.484.938 2.081 5.531 3.55 10.206 3.149 10.024 6.401 19.136 11.243 31.5 13.574 34.658 37.199 78.338 58.919 108.934 3.54 4.986 6.984 9.907 7.653 10.934 4.795 7.363 18.574 25.086 28.217 36.294 9.722 11.301 44.416 46.051 57.803 57.898 12.679 11.22 56.133 42.835 65.197 47.435.55.279 4.15 2.568 8 5.087 3.85 2.519 9.025 5.711 11.5 7.094 2.475 1.383 6.975 3.907 10 5.609 26.597 14.964 52.345 26.898 77 35.69 7.649 2.727 13.918 5.096 17.5 6.61 4.371 1.849 15.347 5.23 21.5 6.624 3.575.809 8.075 1.861 10 2.336 31.425 7.755 63.701 12.346 105.5 15.004 17.248 1.097 53.72.504 67.5-1.097 4.675-.543 13-1.483 18.5-2.088 19.886-2.189 24.138-2.688 32.5-3.813 4.675-.629 9.625-1.523 11-1.986 1.375-.462 6.1-1.624 10.5-2.581 4.4-.957 8.9-2.096 10-2.53 1.1-.435 5.15-1.56 9-2.501 7.468-1.824 24.873-7.455 38-12.294 12.615-4.65 31.697-12.083 35.151-13.691 1.733-.808 3.426-1.468 3.761-1.468 1.738 0 27.335-12.374 38.588-18.653a849.262 849.262 0 0 1 13.5-7.336c6.135-3.25 16.642-9.543 35.357-21.18 2.946-1.832 8.796-5.939 13-9.126 4.204-3.188 8.543-6.438 9.643-7.224 50.388-35.987 82.993-70.662 127.862-135.981 21.881-31.854 37.72-63.028 56.907-112 5.722-14.606 7.633-20.548 12.381-38.5 1.382-5.225 2.953-11.075 3.491-13 .538-1.925 1.598-6.425 2.357-10 2.43-11.457 4.565-21.377 5.597-26 3.076-13.784 6.706-42.252 7.46-58.5 2.099-45.217 2.097-48.263-.042-85.5-.395-6.875-1.122-13.258-1.616-14.184-.493-.927-.897-3.601-.897-5.943 0-2.342-.706-8.559-1.57-13.815-1.513-9.214-2.074-11.896-4.299-20.558-.565-2.2-1.336-6.475-1.712-9.5-.377-3.025-1.018-5.95-1.426-6.5-.407-.55-1.053-3.25-1.435-6-.381-2.75-1.149-6.8-1.705-9s-1.393-5.575-1.861-7.5c-3.094-12.755-4.418-17.684-5.104-19-.43-.825-1.527-3.975-2.438-7-16.07-53.359-53.542-123.754-94.132-176.838-28.147-36.811-59.612-67.032-92.318-88.669-8.802-5.823-24.118-22.398-33.511-36.263-14.009-20.681-22.634-33.594-26.989-40.405-9.22-14.42-28.458-31.837-35.134-31.808-10.499.046-35.366 19.029-35.366 26.998 0 1.847-5.989.572-14.5-3.086-2.449-1.053-12.371-4.341-22.75-7.54a7646.945 7646.945 0 0 1-16-4.957c-12.604-3.924-22.009-6.382-24.514-6.408-1.245-.013-3.045-.442-4-.952-2.826-1.51-19.099-3.96-43.736-6.584-8.25-.879-19.275-2.069-24.5-2.644-10.815-1.192-76.189-2.322-77.176-1.335M1310 238.774c-1.375.918-5.421 4.832-8.99 8.698-3.57 3.865-15.716 16.353-26.991 27.751-11.276 11.398-20.631 21.114-20.791 21.592-.159.478 3.24 5.14 7.554 10.36s8.906 10.982 10.205 12.806l2.361 3.316 2.481-2.898c3.039-3.552 14.074-16.016 20.171-22.785 5.927-6.58 18.748-18.841 27.595-26.388 10.266-8.758 11.79-12.959 7.879-21.726-4.145-9.292-15.286-14.857-21.474-10.726m-980.5 2.066c-7.557 4.616-14.5 14.059-14.5 19.721 0 2.06 3.099 5.748 14.106 16.79 7.758 7.782 19.204 20.047 25.436 27.256 13.619 15.755 16.939 18.759 19.28 17.444 3.702-2.077 21.178-20.046 21.178-21.774 0-.386-7.102-7.918-15.782-16.739-14.876-15.118-23.456-24.437-33.179-36.038-7.683-9.166-10.548-10.32-16.539-6.66m717.5 31.317c-3.575 5.006-7.529 10.281-8.788 11.722-1.258 1.442-6.388 8.696-11.401 16.121-5.013 7.425-12.115 17.55-15.784 22.5-6.694 9.033-26.007 36.782-33.407 48-2.177 3.3-4.231 6.225-4.564 6.5-4.182 3.452-22.056 27.441-22.056 29.602 0 .335 16.087.45 35.75.255l35.75-.355.265 28.786c.261 28.243-.144 32.712-2.959 32.712-1.021 0-11.615 7.462-12.806 9.02-1.321 1.727-25.514 18.98-26.615 18.98-.365 0-7.831 4.837-16.592 10.75s-16.7 11.2-17.643 11.75c-.943.55-5.396 3.586-9.896 6.747-4.5 3.161-9.886 6.672-11.968 7.802-4.742 2.573-7.64 4.305-8.286 4.951-.799.799-4.005 2.491-16.124 8.509-17.709 8.793-20.982 10.568-26.876 14.572-3.025 2.054-9.452 6.29-14.283 9.412-4.83 3.122-9.752 6.988-10.938 8.592-2.555 3.456-5.049 3.699-8.071.786-4.018-3.874-13.215-9.343-18.938-11.261l-5.639-1.89-4.016 2.39c-2.208 1.314-7.525 5.786-11.815 9.936-4.29 4.15-13.425 11.998-20.3 17.44-6.875 5.442-12.725 10.149-13 10.46-.275.311-3.2 2.559-6.5 4.996-4.743 3.502-17.854 14.412-20.5 17.058-.275.275-3.65 3.198-7.5 6.495s-7.489 6.447-8.087 7c-8.99 8.306-20.233 18.464-22.291 20.138-10.805 8.788-15.155 12.108-21.525 16.431-8.609 5.84-8.177 5.794-16.456 1.761-8.772-4.273-19.245-6.741-41.641-9.812-6.551-.898-20.106-3.299-28-4.959-2.75-.579-7.429-1.537-10.398-2.131-2.969-.593-7.862-2.169-10.874-3.501-8.752-3.87-10.467-3.193-23.673 9.357-3.33 3.165-8.755 7.743-12.055 10.174-3.3 2.431-6.675 5.133-7.5 6.004-.825.871-3.075 2.868-5 4.439-1.925 1.57-6.23 5.386-9.567 8.48-3.336 3.093-10.521 9.449-15.966 14.124-5.444 4.675-11.939 10.327-14.433 12.561-2.494 2.233-6.783 5.833-9.533 8-2.749 2.166-5.6 4.508-6.336 5.204-.736.696-2.987 2.493-5.002 3.994-2.014 1.501-3.888 2.957-4.163 3.235-.275.278-2.525 2.075-5 3.992-6.755 5.233-7.136 5.552-22.772 19.014-7.984 6.875-17.94 15.156-22.123 18.401-4.183 3.246-7.83 6.172-8.105 6.503-.275.33-3.2 2.624-6.5 5.096s-6.225 4.728-6.5 5.012c-1.635 1.69-14.138 12.033-17.5 14.476-2.2 1.598-4.225 3.156-4.5 3.461-.513.57-13.895 11.365-17.418 14.051-2.45 1.868-18.684 16.883-20.187 18.671-.812.966-.746 2.703.25 6.54.745 2.874 1.355 6.225 1.355 7.448 0 1.223.45 2.501 1 2.841.55.34 1 2.014 1 3.721 0 2.81 2.063 11.176 4.014 16.279.421 1.1 1.553 4.925 2.516 8.5 2.54 9.427 4.138 14.361 8.017 24.75 1.899 5.087 5.087 13.638 7.084 19 1.997 5.362 4.697 12.126 6 15.03 1.303 2.903 2.369 5.499 2.369 5.768 0 3.002 18.463 39.753 24.235 48.239l5.246 7.713.743-5c1.437-9.654 2.185-139.73.828-143.842-1.739-5.269-.476-6.336 8.231-6.959 9.345-.668 21.138-2.351 26.29-3.752 3.973-1.08 4.126-1.287 6.193-8.312 6.308-21.44 33.661-31.611 52.882-19.663 2.682 1.667 6.221 3.394 7.864 3.837 4.212 1.136 13.488-.55 13.488-2.451 0-3.489 4.354-19.411 6.087-22.261 1.83-3.008 8.421-7.788 16.669-12.087 6.737-3.511 7.129-4.375 7.734-17.038.301-6.288 1.046-13.017 1.655-14.952 3.384-10.75 4.451-12.878 8.617-17.193 4.587-4.752 19.143-12.827 23.12-12.827 1.1 0 2.278-.45 2.618-1 .847-1.37 19.011-1.268 23.429.131 17.529 5.553 26.505 18.141 29.562 41.457.854 6.521 1.881 12.146 2.281 12.498 1.605 1.415 10.524 2.915 17.421 2.929 4.019.009 7.876.377 8.571.818 2.357 1.496 3.511 17.806 2.983 42.167-.28 12.925-.338 23.95-.129 24.5.252.665 8.345.682 24.131.053 29.444-1.174 54.4-1.295 60.001-.291l4.25.762v-8.831c0-16.1.958-17.748 14.69-25.274 13.069-7.163 12.355-6.282 18.783-23.172 4.779-12.557 12.885-20.373 24.017-23.158 1.644-.411 3.232-1.138 3.527-1.616.857-1.388 21.839-1.761 24.397-.433 1.22.633 3.486 1.469 5.034 1.858 2.477.621 11.87 6.546 22.552 14.224l3.5 2.516.262-37.281c.166-23.544.637-37.656 1.278-38.297.559-.559 7.641-1.579 15.738-2.267s16.362-1.529 18.366-1.869l3.644-.618.675-6.653c2.08-20.513 13.982-36.521 28.838-38.786 2.309-.352 4.649-.959 5.199-1.35 1.454-1.032 11.5-.946 11.5.099 0 .486 1.619.884 3.599.884 4.492 0 9.033 2.113 13.498 6.28C983.443 694.47 983 694.633 983 672.047c0-11.494.418-18.869 1.161-20.5l1.16-2.547 26.09-.004c29.084-.004 30.72-.345 34.397-7.182 7.024-13.056 14.222-13.895 33.918-3.952 3.419 1.726 7.082 3.138 8.138 3.138 1.057 0 2.181.675 2.498 1.5.362.944 1.893 1.5 4.131 1.5 4.602 0 5.5-2.244 5.529-13.815.04-16.292 2.982-42.134 6.852-60.185 1.33-6.205-.401-9.451-9.76-18.305-4.184-3.957-11.028-10.682-15.21-14.945-9.911-10.102-12.338-10.352-24.989-2.58a947.344 947.344 0 0 1-16.915 10.1c-4.675 2.713-11.65 7.056-15.5 9.652-3.85 2.597-7.675 5.031-8.5 5.411-.825.379-2.684 1.472-4.132 2.428-7.023 4.641-20.907 13.239-21.377 13.239-.292 0-2.434 1.208-4.761 2.685-2.326 1.477-7.605 4.455-11.73 6.617a5727.639 5727.639 0 0 0-17 8.96c-12.288 6.506-32.725 17.103-41 21.26-6.302 3.166-8.81 4.328-21.5 9.968-10.219 4.541-14.805 6.87-20.259 10.288-5.526 3.462-16.001 8.493-20.241 9.721-1.375.398-3.85 1.299-5.5 2.003-9.991 4.26-11.869 4.624-22.428 4.337l-10.572-.288-8.5 5.443c-4.675 2.994-13.675 9.303-20 14.022-6.325 4.718-13.975 10.341-17 12.495-4.868 3.465-14.642 11.104-16 12.505-.275.283-5 4.323-10.5 8.977s-16.314 14.322-24.032 21.484c-25.454 23.623-31.878 28.214-37.779 26.998-3.17-.653-17.368-5.054-21.189-6.568-2.132-.844-16.673-4.617-22.5-5.838-3.366-.705-9.306-2.512-13.5-4.107-1.1-.418-3.575-1.323-5.5-2.011-21.586-7.715-25.504-10.913-26.635-21.737-.773-7.391.016-7.825 11.358-6.255a726.221 726.221 0 0 0 16.277 2.02c17.497 1.941 23.229 3.037 31.5 6.019 1.1.397 4.7 1.551 8 2.565s6.675 2.169 7.5 2.568c2.487 1.202 11.765 3.869 13.458 3.869 4.008 0 9.748-4.737 34.542-28.507 5.225-5.009 16.7-15.141 25.5-22.516 8.8-7.375 16.225-13.652 16.5-13.949.275-.296 2.3-1.878 4.5-3.515 3.98-2.961 21.187-17.286 25-20.813 1.1-1.018 5.15-4.396 9-7.509 7.921-6.402 11.094-9.48 11.735-11.381.333-.989 1.891-.643 6.353 1.409 9.126 4.198 13.941 5.317 16.962 3.94 1.399-.637 3.31-1.173 4.247-1.19.937-.017 3.873-1.095 6.525-2.394 3.883-1.902 4.926-2.091 5.357-.969.873 2.276 4.696 1.597 8.893-1.578 2.16-1.635 4.309-2.985 4.774-3 .465-.015 2.04-.867 3.5-1.892 3.866-2.716 13.954-8.103 37.654-20.111 11.55-5.852 22.904-11.851 25.23-13.332 2.327-1.481 4.435-2.693 4.685-2.693.834 0 31.938-19.65 43.331-27.375 6.185-4.194 11.457-7.625 11.715-7.625 1.872 0 25.88-16.384 39.094-26.678 2.449-1.908 5.511-3.586 15.445-8.462 5.775-2.834 14.775-7.982 20-11.439 5.225-3.458 10.714-6.747 12.198-7.309 6.074-2.303 6.077-2.327 4.699-41.367-1.238-35.053-1.082-39.595 1.313-38.115.673.416 7.089 1.07 14.257 1.454 43.906 2.348 61.7 3.082 62.216 2.566.322-.322-3.075-6.034-7.549-12.693S1140 383.471 1140 383.008c0-.463-.338-.991-.75-1.175-1.529-.679-37.25-50.297-37.25-51.742 0-.508-.347-1.074-.772-1.258-1.553-.671-14.151-18.728-23.256-33.333-8.367-13.423-12.366-19.425-15.472-23.223-.55-.672-2.35-3.014-4-5.204-4.027-5.343-4.065-5.326-11.5 5.084m-241.65 69.432c-16.049 15.623-32.308 30.505-40.85 37.391-4.4 3.546-8.225 6.719-8.5 7.051-.275.331-3.2 2.598-6.5 5.036-3.3 2.438-6.574 4.975-7.275 5.636-.701.662-3.401 2.912-6 5-2.599 2.089-4.95 4.028-5.225 4.31-.543.558-11.841 10.064-19.594 16.487-9.885 8.188-28.131 23.831-34.906 29.924-3.85 3.463-9.7 8.467-13 11.12-9.595 7.713-15.961 12.915-16.5 13.482-.275.289-2.524 2.089-4.997 4-5.166 3.992-7.503 5.906-14.003 11.474-5.874 5.032-4.888 4.204-34.59 29.024-13.7 11.449-26.756 22.427-29.012 24.396a35785.891 35785.891 0 0 0-20.898 18.265c-2.2 1.924-5.094 4.358-6.432 5.407-1.338 1.049-5.625 4.833-9.527 8.408-3.902 3.575-9.776 8.75-13.054 11.5-3.278 2.75-9.714 8.6-14.302 13-4.589 4.4-13.37 11.716-19.514 16.258-16.355 12.089-24.543 18.592-30.179 23.966-7.299 6.962-13.895 12.825-28.996 25.776-3.848 3.3-7.221 6.236-7.496 6.525-.275.288-5 4.083-10.5 8.433-11.52 9.111-22.016 18.135-32 27.513-3.85 3.616-10.575 9.715-14.945 13.552-4.37 3.837-9.995 8.814-12.5 11.059-2.505 2.245-10.299 8.711-17.319 14.368-15.061 12.138-14.387 11.277-12.007 15.333 2.831 4.824 4.114 11.024 4.805 23.217.343 6.05.738 13.053.877 15.562.14 2.51 1.117 6.11 2.172 8 1.054 1.891 1.988 3.584 2.074 3.762.505 1.041 7.247-3.797 15.435-11.076 5.174-4.6 10.308-9.111 11.408-10.024 4.423-3.673 14.354-11.425 18.862-14.724 5.77-4.222 17.37-13.73 20.138-16.504 1.1-1.103 5.6-5.146 10-8.985 4.4-3.839 10.488-9.331 13.53-12.206 4.888-4.62 14.395-12.37 34.47-28.1 6.307-4.941 10.358-8.43 19.468-16.767 3.043-2.784 9.807-8.621 15.032-12.97 5.225-4.35 9.725-8.153 10-8.452.588-.639 13.874-11.836 16.63-14.016a625.474 625.474 0 0 0 4.977-4 529.346 529.346 0 0 1 6.935-5.5c5.965-4.644 34.417-28.356 39.5-32.921 7.734-6.944 18.292-16.164 21.958-19.174 1.925-1.58 3.725-3.116 4-3.413.275-.297 3.65-2.987 7.5-5.979 5.592-4.345 20.111-16.616 22.5-19.015.275-.276 3.875-3.2 8-6.498s7.725-6.235 8-6.527c.275-.293 4.775-4.11 10-8.484s9.95-8.439 10.5-9.035c.55-.595 4.6-4.204 9-8.018 4.4-3.815 8.225-7.164 8.5-7.442.275-.278 2.3-1.829 4.5-3.447s6.925-5.374 10.5-8.346c8.066-6.705 8.82-7.319 18.025-14.676 4.111-3.286 12.585-10.261 18.83-15.5 6.246-5.239 14.571-12.133 18.5-15.32 7.259-5.888 15.97-13.219 18.017-15.163.62-.589 3.153-2.635 5.628-4.547 2.475-1.913 5.4-4.324 6.5-5.359 1.934-1.82 14.532-11.585 18.872-14.628 1.17-.821 2.644-1.946 3.275-2.5.631-.554 3.291-2.583 5.912-4.508 2.62-1.925 7.006-5.637 9.745-8.25 6.126-5.841 5.135-5.94 12.797 1.275 3.52 3.313 11.124 9.476 16.899 13.694s16.083 12.42 22.906 18.225c6.824 5.806 15.824 13.405 20 16.887 4.177 3.482 8.494 7.085 9.594 8.007 1.1.923 6.95 5.48 13 10.129 6.05 4.648 11.225 8.709 11.5 9.024 1.788 2.049 9.705 7.009 11.186 7.009.986 0 4.16-2.141 7.053-4.758 2.894-2.618 6.836-5.874 8.761-7.236 7.994-5.659 25.877-22.215 27.616-25.568 1.464-2.821 1.494-2.796-5.616-4.465-8.542-2.004-13.572-5.28-27.584-17.965-9.585-8.677-17.912-15.759-27.64-23.508-3.635-2.895-15.759-13.575-18.733-16.502-1.399-1.376-3.893-3.548-5.543-4.826-1.65-1.277-7.725-6.702-13.5-12.054-14.235-13.193-21.823-19.952-27.076-24.118-5.738-4.55-12.242-10.338-18.218-16.212-5.5-5.406-9.634-8.788-10.741-8.788-.421 0-5.198 4.315-10.615 9.589M462.731 441.64c-.826 1.359-.098 143.374.76 148.125l.769 4.265 4.672-4.265c2.57-2.346 7.124-6.283 10.12-8.749 2.996-2.466 8.148-7.002 11.448-10.081 3.3-3.079 7.575-6.959 9.5-8.624 1.925-1.665 6.04-5.228 9.144-7.919s9.554-8.042 14.333-11.892c4.779-3.85 9.214-7.452 9.856-8.005.642-.553 4.317-3.703 8.167-7 3.85-3.297 7.225-6.231 7.5-6.519.275-.288 3.65-2.966 7.5-5.952 3.85-2.985 8.617-6.799 10.593-8.476 11.291-9.578 24.219-18.63 31.592-22.12 3.401-1.61 6.364-3.378 6.584-3.928.219-.55.194-9.437-.057-19.75l-.456-18.75-67.128-.011c-36.92-.006-68.758-.281-70.751-.61-1.992-.33-3.858-.212-4.146.261M813 448.718c-1.925 1.483-6.425 5.48-10 8.882-3.575 3.402-8.075 7.468-10 9.035-1.925 1.567-5.3 4.499-7.5 6.514-2.2 2.016-9.175 7.791-15.5 12.833-6.325 5.041-13.29 10.596-15.477 12.342-3.791 3.027-14.045 11.712-27.954 23.676-5.667 4.875-26.598 22.212-30.572 25.323-.827.647-3.527 2.75-6 4.672-5.275 4.1-9.379 7.622-16.967 14.563-3.042 2.782-7.555 6.605-10.03 8.497-2.475 1.891-9.261 7.49-15.079 12.442-5.819 4.951-12.328 10.353-14.465 12.003-3.997 3.086-9.409 7.612-12.947 10.825-1.105 1.004-5.159 4.378-9.009 7.498-3.85 3.12-7.225 5.941-7.5 6.269-.275.327-3.301 2.646-6.724 5.151-4.533 3.319-5.891 4.819-5 5.524 2.507 1.982 31.901 10.698 40.224 11.926 1.65.244 3.9.822 5 1.286 1.1.463 4.925 1.325 8.5 1.916s8.637 1.518 11.248 2.059c2.611.542 5.536.685 6.5.317 2.142-.815 16.185-12.115 25.932-20.866 6.787-6.093 9.65-8.527 20.283-17.246a584.046 584.046 0 0 0 9.104-7.659c2.552-2.2 8.838-7.6 13.968-12 5.13-4.4 11.383-9.84 13.896-12.09 3.813-3.413 9.045-7.697 24.072-19.708.827-.661 3.527-2.774 6-4.695 2.473-1.92 4.647-3.833 4.83-4.25.184-.416.934-.757 1.667-.757s1.483-.341 1.667-.757c.776-1.765 9.097-7.475 14.497-9.948 5.357-2.453 6.861-2.669 18.336-2.631 11.995.04 14.716.475 28.151 4.498 3.447 1.032 4.402.727 17-5.417 7.342-3.58 15.757-8.137 18.699-10.127 2.943-1.99 5.552-3.618 5.799-3.618.246 0 2.909-1.575 5.918-3.5 3.01-1.925 5.913-3.5 6.452-3.5 3.022 0-8.342-11.02-18.562-18-1.208-.825-4.207-3.3-6.664-5.5s-6.431-5.575-8.831-7.5a693.633 693.633 0 0 1-7.413-6.032c-1.677-1.392-5.749-4.512-9.049-6.933-3.3-2.421-6.225-4.663-6.5-4.983-.275-.32-3.421-2.826-6.99-5.567-3.57-2.742-9.336-7.797-12.815-11.235-3.479-3.437-6.408-6.245-6.51-6.239-.102.006-1.76 1.224-3.685 2.707m360 74.934c-18.559 3.444-25.35 25.065-13.21 42.062 12.926 18.099 36.7 5.651 36.696-19.214-.003-15.583-10.036-25.343-23.486-22.848m14.716 76.965c-.339.339-13.708.64-29.709.668-26.185.046-29.013.209-28.299 1.633.892 1.782.574 464.051-.362 524.832-.647 41.997-.617 42.262 4.122 36.989 1.118-1.243 4.732-4.25 8.032-6.683 3.3-2.432 6.225-4.677 6.5-4.989.275-.312 4.77-4.392 9.988-9.067 10.8-9.675 19.813-18.73 30.854-31 4.206-4.675 11.417-12.325 16.023-17l8.375-8.5-.657-8.77c-1.063-14.171-.66-461.367.422-468.73 1.611-10.966 2.754-10-11.838-10-7.059 0-13.111.278-13.451.617m59.839 32.651c-.816 2.732-2.211 73.296-1.465 74.128 2.52 2.813 15.328 1.144 24.139-3.146 4.802-2.337 9.195-4.25 9.764-4.25.569 0 1.816-.418 2.771-.928 7.82-4.182 28.303-4.069 33.939.186 1.323 1 10.115 1.257 11.049.324 1.748-1.748-16.075-17.007-21.498-18.405-.69-.178-1.254-.638-1.254-1.023 0-.385-1.575-1.547-3.5-2.584-1.925-1.037-3.5-2.264-3.5-2.727 0-.464-.508-.843-1.129-.843s-2.983-1.604-5.25-3.565c-13.167-11.388-18.219-16.013-28.268-25.875-11.079-10.873-15.07-13.726-15.798-11.292m-234.742 49.482c.378 2.063.603 10.5.5 18.75-.881 70.759-1.303 530.5-.487 530.5.548 0 4.523-1.615 8.835-3.588a1690.52 1690.52 0 0 1 11.339-5.148c13.999-6.237 39.204-19.347 45.982-23.916 1.915-1.292 3.802-2.348 4.192-2.348.391 0 3.599-1.811 7.128-4.024l6.418-4.024-.427-221.226c-.395-204.321.189-280.387 2.198-286.476l.742-2.25h-87.107l.687 3.75m-71.271 15.979c-6.463 1.642-11.452 8.361-8.442 11.371 1.045 1.045 2.548 1.9 3.341 1.9.793 0 1.73.468 2.084 1.041.354.572 1.432.79 2.395.484.964-.305 4.188-.734 7.166-.952 8.817-.647 10.051-1.58 7.756-5.868-1.794-3.352-9.674-9.074-11.827-8.589-.283.064-1.396.34-2.473.613M975 742.679c-8.853 2.661-20.938 3.631-50.157 4.028l-29.657.402.299 255.695c.165 140.633.348 257.566.407 259.851l.108 4.155 4.25-.54c2.337-.297 4.7-.879 5.25-1.294.55-.414 3.813-1.073 7.252-1.463 3.438-.39 6.502-1.116 6.809-1.611.306-.496 1.58-.902 2.831-.902s2.605-.33 3.009-.734c.404-.404 3.066-1.263 5.917-1.909 2.85-.645 6.982-1.705 9.182-2.354s6.25-1.638 9-2.197c2.75-.56 5.781-1.42 6.736-1.912.955-.492 2.53-.904 3.5-.915.97-.012 5.589-1.316 10.264-2.897l8.5-2.875.623-251.854c.343-138.519.568-251.892.5-251.94-.068-.048-2.148.522-4.623 1.266m271.001 147.071c-.001 78.788.234 143.25.521 143.25.735 0 10.478-10.298 10.478-11.075 0-.351 2.325-4.64 5.166-9.532 10.558-18.177 15.45-27.819 21.889-43.143l1.888-4.5a665.099 665.099 0 0 1 3.5-8.03c1.406-3.178 2.557-6.035 2.557-6.349 0-.313.621-1.987 1.38-3.72 2.985-6.812 5.55-13.437 7.609-19.651 1.185-3.575 2.51-7.4 2.946-8.5.435-1.1 1.566-4.475 2.513-7.5.947-3.025 2.095-6.4 2.55-7.5.456-1.1 1.599-5.375 2.54-9.5.942-4.125 2.079-8.4 2.529-9.5.449-1.1 1.318-4.25 1.931-7 .614-2.75 1.574-6.8 2.134-9 1.47-5.77 3.679-21.279 4.843-34 .554-6.05 1.259-12.181 1.568-13.624.308-1.443 1.003-16.293 1.543-33s1.235-32.738 1.545-35.626l.562-5.25-23.346-.188c-12.841-.103-31.334-.215-41.096-.25l-17.749-.062-.001 143.25M576.222 759.535c-12.766 6.462-15.244 20.899-5.411 31.526 9.208 9.951 18.911 8.773 27.904-3.39 11.372-15.379-5.644-36.664-22.493-28.136M820 802.682c-5.269.797-6.595 1.353-9.637 4.043-10.72 9.484-9.106 25.853 3.096 31.395 9.985 4.536 19.476.943 25.013-9.471 7.581-14.257-2.47-28.387-18.472-25.967m-200 19.076c-4.689 1.386-10.934 1.604-42.342 1.474-34.438-.142-36.788-.04-36.024 1.558.449.941.945 81.135 1.101 178.21.156 97.075.503 177.474.772 178.665.402 1.782 21.762 16.335 23.976 16.335.263 0 2.94 1.575 5.95 3.5 3.009 1.925 5.726 3.5 6.039 3.5.312 0 2.246 1.056 4.298 2.347 2.051 1.29 11.155 6.05 20.23 10.576 9.075 4.527 17.281 8.646 18.236 9.154 4.416 2.348 5.081 1.391 4.4-6.327-.352-3.987-.675-95.787-.718-204-.043-108.213-.154-196.72-.248-196.684-.093.036-2.645.797-5.67 1.692m236.236 23.52c-3.799 1.964-7.003 4.454-8.143 6.329-1.909 3.139-6.904 5.76-14.593 7.657-6.226 1.536-19.577 2.059-20.82.816-.594-.594-1.684-1.08-2.422-1.08-.738 0-4.36-1.433-8.05-3.185-5.785-2.747-7.879-3.203-15.214-3.314l-8.506-.129-.252 200.064c-.139 110.035.015 203.889.34 208.564l.593 8.5 5.824-.334c3.203-.184 6.767.171 7.921.788 1.505.806 11.398.926 35.091.426l32.995-.696v-180.642c0-102.236.406-186.263.936-193.592 1.323-18.322 2.179-53.454 1.301-53.43-.405.011-3.556 1.477-7.001 3.258M501 889.081c-7.939 1.01-63.94 2.766-69.5 2.179l-4-.423.5 94.512.5 94.512 8.645 8.819c4.754 4.851 10.149 10.62 11.987 12.82 4.907 5.871 32.425 33.587 36.24 36.5 3.187 2.433 11.618 9.654 20.143 17.25 2.315 2.063 4.429 3.75 4.698 3.75 1.39 0 .099-270.503-1.292-270.623-.781-.068-4.346.249-7.921.704m236.898 3.355c-1.042 1.041-58.36 3.733-68.132 3.199l-10.733-.586.173 159.225c.095 87.574.425 165.924.734 174.111l.56 14.885 6 1.942c7.582 2.453 19.231 5.726 29.5 8.288 3.025.755 7.3 1.889 9.5 2.521 2.2.631 6.475 1.703 9.5 2.381 3.025.677 6.175 1.506 7 1.841 1.575.639 3.122.949 14.5 2.909 3.85.663 7.26 1.59 7.579 2.059.318.469.681-77.124.806-172.429.126-95.305.642-178.682 1.149-185.282.506-6.6.931-12.788.943-13.75.021-1.632-7.651-2.743-9.079-1.314M365.881 1207.25c-4.03 4.537-16.79 17.794-28.354 29.46-11.565 11.665-21.446 22.337-21.958 23.716-2.134 5.744 8.571 19.759 16.184 21.187 4.467.838 6.677-.827 16.199-12.207 4.099-4.898 16.666-17.992 27.927-29.097l20.475-20.191-2.913-4.309c-4.44-6.568-15.409-16.809-18.003-16.809-1.533 0-4.516 2.575-9.557 8.25m901.946-5.5c-6.14 5.076-17.827 17.141-17.827 18.403 0 1.018 42.183 44.345 57.5 59.06 5.189 4.985 7.432 5.483 12.862 2.854 7.491-3.626 14.702-12.403 14.606-17.777-.047-2.68-1.341-4.149-22.28-25.29-10.622-10.725-23.247-24.112-28.056-29.75-9.758-11.441-11.238-12.102-16.805-7.5" fill-rule="evenodd"/>
</svg>